# xmcd
#
# Track frame offsets:
#	150
#	13908
#	25673
#	42151
#	56301
#	67039
#	85469
#	100890
#	122787
#	139000
#	151098
#
# Disc length: 2251 seconds
#
# Revision: 0
# Processed by: cddbd v1.4PL0 Copyright (c) Steve Scherf et al.
# Submitted via: dBpowerAMP V4.0
#
DISCID=8a08c90b
DTITLE=One Heart - No Greater Joy
DYEAR=1999
DGENRE=Gospel
TTITLE0=Hallelujah Side
TTITLE1=Just Kneel
TTITLE2=The Old Rugged Cross
TTITLE3=Laying Up Treasures
TTITLE4=You Gotta Know
TTITLE5=No Greater Joy
TTITLE6=I'm Saved  
TTITLE7=He Took My Place
TTITLE8=A Greater Miracle
TTITLE9=When I Get Home 
TTITLE10=Touch Me Again Lord
EXTD=
EXTT0=
EXTT1=
EXTT2=
EXTT3=
EXTT4=
EXTT5=
EXTT6=
EXTT7=
EXTT8=
EXTT9=
EXTT10=
PLAYORDER=
